<?xml version="1.0" encoding="utf-8"?>
<!-- Generator: Adobe Illustrator 26.3.1, SVG Export Plug-In . SVG Version: 6.00 Build 0)  -->
<svg version="1.1" id="Layer_1" xmlns="http://www.w3.org/2000/svg" xmlns:xlink="http://www.w3.org/1999/xlink" x="0px" y="0px"
	 viewBox="0 0 221.47 109.07" style="enable-background:new 0 0 221.47 109.07;" xml:space="preserve">
<style type="text/css">
	.st0{fill:#4F2683;}
	.st1{fill:#FFFFFF;}
	.st2{fill:#00483A;}
</style>
<g>
	<g>
		<path class="st0" d="M5.54,97.33H6.2l1.05,4.11c0.16,0.62,0.31,1.23,0.41,1.7h0.02c0.09-0.46,0.24-1.08,0.39-1.7l1.01-4.12h0.68
			l1.02,4.16c0.15,0.61,0.29,1.14,0.38,1.65h0.02c0.12-0.54,0.25-1.03,0.39-1.63l1.06-4.18h0.62l-1.79,6.77h-0.61l-1.44-5.88H9.41
			l-1.45,5.88H7.34L5.54,97.33z"/>
		<path class="st0" d="M16.98,97.33h4.04v0.6h-3.39v2.29h2.53v0.59h-2.53v2.69h3.59v0.59h-4.24V97.33z"/>
		<path class="st0" d="M24.66,102.44l0.58-0.21c0.3,0.94,0.99,1.43,1.94,1.43c1.02,0,1.67-0.47,1.67-1.23c0-0.7-0.34-1.06-1.78-1.52
			c-1.45-0.46-2.19-0.85-2.19-1.97c0-0.97,0.87-1.74,2.1-1.74c1.27,0,2,0.65,2.32,1.56l-0.55,0.25c-0.34-0.88-0.93-1.22-1.78-1.22
			c-0.9,0-1.45,0.49-1.45,1.11c0,0.76,0.45,1.02,1.88,1.47c1.41,0.45,2.1,0.91,2.1,2.01c0,1.13-1,1.85-2.35,1.85
			C25.88,104.23,24.98,103.54,24.66,102.44z"/>
		<path class="st0" d="M34.49,97.93H32.3v-0.6h5.02v0.6h-2.19v6.17h-0.65V97.93z"/>
		<path class="st0" d="M57.69,97.33h0.69l3.73,5.58h0.02v-5.58h0.61v6.77h-0.58l-3.85-5.76H58.3v5.76h-0.61V97.33z"/>
	</g>
	<g>
		<path class="st0" d="M118.54,99.16c0-1.19-0.84-1.83-2.35-1.83h-2.27v6.77h0.64v-3.04h1.68l1.66,3.04h0.73l-1.72-3.11
			C117.9,100.81,118.54,100.26,118.54,99.16z M116.14,100.49h-1.58v-2.56h1.58c1.13,0,1.76,0.33,1.76,1.26
			C117.89,100.17,117.26,100.49,116.14,100.49z"/>
		<path class="st0" d="M124.92,100.37c-1.43-0.46-1.88-0.71-1.88-1.47c0-0.62,0.55-1.11,1.45-1.11c0.85,0,1.45,0.35,1.79,1.23
			l0.55-0.26c-0.32-0.91-1.05-1.56-2.33-1.56c-1.24,0-2.11,0.77-2.11,1.74c0,1.12,0.74,1.51,2.2,1.97c1.44,0.46,1.78,0.82,1.78,1.52
			c0,0.76-0.66,1.23-1.68,1.23c-0.95,0-1.64-0.48-1.94-1.43l-0.58,0.21c0.32,1.1,1.22,1.79,2.49,1.79c1.35,0,2.35-0.72,2.35-1.85
			C127.03,101.28,126.34,100.82,124.92,100.37z"/>
		<path class="st0" d="M76.36,101.72c0,1.12-0.56,1.91-1.81,1.91c-1.26,0-1.82-0.82-1.82-1.93v-4.38h-0.65v4.49
			c0,1.35,0.8,2.41,2.46,2.41c1.65,0,2.47-1.08,2.47-2.43v-4.46h-0.65V101.72z"/>
		<rect x="131.14" y="97.33" class="st0" width="0.65" height="6.77"/>
		<polygon class="st0" points="86.1,102.91 86.08,102.91 82.35,97.33 81.65,97.33 81.65,104.1 82.27,104.1 82.27,98.34 82.29,98.34 
			86.14,104.1 86.72,104.1 86.72,97.33 86.1,97.33 		"/>
		<polygon class="st0" points="106.36,100.82 108.89,100.82 108.89,100.23 106.36,100.23 106.36,97.93 109.76,97.93 109.76,97.33 
			105.71,97.33 105.71,104.1 109.95,104.1 109.95,103.51 106.36,103.51 		"/>
		<path class="st0" d="M53.69,99.16c0-1.19-0.84-1.83-2.35-1.83h-2.27v6.77h0.64v-3.04h1.68l1.66,3.04h0.73l-1.71-3.11
			C53.05,100.81,53.69,100.26,53.69,99.16z M51.29,100.49h-1.58v-2.56h1.57c1.13,0,1.76,0.33,1.76,1.26
			C53.04,100.17,52.41,100.49,51.29,100.49z"/>
		<polygon class="st0" points="41.5,100.82 44.04,100.82 44.04,100.23 41.5,100.23 41.5,97.93 44.9,97.93 44.9,97.33 40.85,97.33 
			40.85,104.1 45.09,104.1 45.09,103.51 41.5,103.51 		"/>
		<polygon class="st0" points="99.11,103.24 99.09,103.24 97.07,97.33 96.4,97.33 98.78,104.13 99.39,104.13 101.77,97.33 
			101.14,97.33 		"/>
		<rect x="91.76" y="97.33" class="st0" width="0.65" height="6.77"/>
		<polygon class="st0" points="145.92,100.56 144.01,97.33 143.31,97.33 145.58,101.14 145.58,104.1 146.23,104.1 146.23,101.14 
			148.51,97.33 147.81,97.33 		"/>
		<polygon class="st0" points="185.88,102.91 185.86,102.91 182.13,97.33 181.43,97.33 181.43,104.1 182.04,104.1 182.04,98.34 
			182.06,98.34 185.92,104.1 186.49,104.1 186.49,97.33 185.88,97.33 		"/>
		<path class="st0" d="M202.75,97.33h-1.71v6.77h1.71c2.18,0,3.37-1.16,3.37-3.39C206.12,98.47,204.96,97.33,202.75,97.33z
			 M202.85,103.54h-1.17v-5.62h1.15c1.7,0,2.66,0.87,2.66,2.79C205.49,102.68,204.54,103.54,202.85,103.54z"/>
		<path class="st0" d="M193.35,97.3l-2.53,6.8h0.63l0.77-2.08h3l0.77,2.08h0.68l-2.53-6.8H193.35z M192.43,101.44l1.28-3.46h0.02
			l1.27,3.46H192.43z"/>
		<path class="st0" d="M212.22,97.3l-2.53,6.8h0.63l0.76-2.08h3l0.76,2.08h0.68L213,97.3H212.22z M211.3,101.44l1.27-3.46h0.03
			l1.27,3.46H211.3z"/>
		<path class="st0" d="M164.89,103.64c-1.32,0-2.18-1.1-2.18-2.98c0-1.74,0.85-2.87,2.16-2.87c1.04,0,1.54,0.56,1.84,1.63l0.62-0.16
			c-0.32-1.25-1.09-2.07-2.45-2.07c-1.7,0-2.82,1.44-2.82,3.49c0,2.16,1.11,3.54,2.82,3.54c1.35,0,2.23-0.84,2.56-2.17l-0.62-0.14
			C166.53,103.06,165.9,103.64,164.89,103.64z"/>
		<path class="st0" d="M155.08,100.06c-0.4,0-0.69,0.29-0.69,0.69c0,0.4,0.29,0.69,0.69,0.69c0.41,0,0.69-0.29,0.69-0.69
			C155.77,100.34,155.49,100.06,155.08,100.06z"/>
		<path class="st0" d="M173.75,97.3l-2.53,6.8h0.64l0.76-2.08h3l0.77,2.08h0.68l-2.53-6.8H173.75z M172.83,101.44l1.28-3.46h0.02
			l1.27,3.46H172.83z"/>
		<polygon class="st0" points="135.34,97.93 137.52,97.93 137.52,104.1 138.17,104.1 138.17,97.93 140.36,97.93 140.36,97.33 
			135.34,97.33 		"/>
	</g>
</g>
<rect x="5.05" y="88.17" class="st0" width="210.04" height="1"/>
<path class="st1" d="M51.78,27.66l0-21.25c-5.5-1.94-14.13-3.2-23.86-3.2c-9.55,0-18.04,1.25-23.54,3.2l0,21.55
	c0,3.18-0.14,8.8,2.74,15.54c3.59,8.36,10.53,14.65,20.44,18.59l0.51,0.21l0.51-0.2c9.92-3.95,16.86-10.23,20.45-18.6
	C51.92,36.77,51.78,30.7,51.78,27.66"/>
<path class="st0" d="M41.2,36.8c0.03-0.07,0.05-0.15,0.05-0.21c0-0.04,0-0.09-0.04-0.13c-0.04-0.04-0.14-0.06-0.24-0.06
	c-0.1,0-0.21,0.02-0.27,0.06c-0.01,0.03-0.02,0.06-0.04,0.11C40.84,36.57,41.05,36.62,41.2,36.8 M42.16,41.04h-0.04
	c-0.03,0.33-0.21,0.83-0.33,1.01l0.21-0.16l0.14,0.16l0.14-0.16l0.2,0.16C42.37,41.86,42.2,41.37,42.16,41.04 M44.62,41.2
	c0.04-0.07,0.1-0.16,0.1-0.16c-0.21-0.31-0.36-0.66-0.33-1.06c0.03-0.43,0.27-0.56,0.46-0.55c0.17,0.01,0.29,0.14,0.3,0.33
	c0.14-0.12,0.21-0.27,0.22-0.41c0.01-0.11-0.05-0.28-0.24-0.33c0.34-0.32,0.31-0.95-0.04-1.2c0.05,0.46-0.29,0.77-0.6,1.06
	c-0.41,0.4-0.46,0.85-0.39,1.31c-0.24-0.47-0.36-0.91-0.33-1.35c0.04-0.49,0.28-0.99,0.64-0.97c0.12,0.01,0.24,0.07,0.28,0.17
	c0.17-0.29,0.05-0.61-0.23-0.63c0.28-0.68-0.18-1.36-0.55-1.5c0.1,0.21,0.14,0.41,0.13,0.64c-0.04,0.65-0.61,1.17-0.67,2.13
	c-0.06,1.05,0.52,1.96,1.15,2.65C44.52,41.34,44.57,41.27,44.62,41.2 M40.9,39.6h-0.04c-0.03,0.33-0.21,0.83-0.33,1.01l0.21-0.17
	l0.14,0.17l0.14-0.16l0.2,0.16C41.11,40.42,40.93,39.93,40.9,39.6 M40.17,35.83c-0.03,0.05-0.03,0.11-0.02,0.15
	c0,0,0.02,0.03,0.02,0.03c-0.02,0.08-0.01,0.19,0.02,0.34c0.02,0.09,0.1,0.12,0.25,0.12c0,0.04,0.01,0.07,0.01,0.11
	c0,0,0,0.01,0,0.01c-0.09,0.02-0.17,0.04-0.25,0.04c-0.23-0.02-0.38-0.14-0.35-0.38c0-0.04,0.02-0.08,0.04-0.12
	c0.01-0.02,0-0.04-0.02-0.04c-0.08-0.03-0.32,0.17-0.36,0.44c-0.03,0.26,0.11,0.4,0.33,0.42c0.12,0.01,0.28-0.01,0.45-0.07
	c0.29-0.12,0.62-0.15,0.82,0.05c-0.15-0.03-0.54,0-0.66,0.02c-0.17,0.03-0.25,0.38-0.06,0.39c0.14,0.01,0.67-0.02,0.7-0.02
	c-0.05,0.23-0.39,0.52-0.72,0.59c-0.2-0.08-0.79-0.07-1.06,0.02c-0.33-0.38-0.58-1.08-0.61-1.32c-0.01-0.11-0.02-0.23,0.04-0.33
	c0.11-0.19,0.32-0.18,0.42-0.34c0.05-0.09,0.03-0.19,0.04-0.29c0.01-0.04,0.09-0.19-0.02-0.24c-0.05,0.06-0.12,0.1-0.22,0.07
	c-0.06-0.02-0.13-0.04-0.2-0.02c-0.12,0.05-0.14,0.2-0.23,0.29c-0.05,0.05-0.11,0.03-0.1-0.05c0.03-0.13,0.09-0.26,0.07-0.39
	c-0.02-0.14-0.12-0.25-0.26-0.32c-0.06-0.03-0.13-0.09-0.19-0.11c-0.07-0.02-0.12,0.01-0.13,0.04c0.03,0.02,0.06,0.06,0.06,0.11
	c0.01,0.12-0.13,0.19-0.13,0.3c0,0.18,0.12,0.34,0.13,0.43c0.01,0.07-0.05,0.07-0.09,0.05c-0.09-0.05-0.24-0.13-0.37-0.13
	c-0.11-0.01-0.18,0.08-0.28,0.12c-0.04,0.02-0.21,0.02-0.18,0.1c0.1,0.02,0.17,0.08,0.2,0.17c0.02,0.07,0.04,0.12,0.1,0.17
	c0.11,0.08,0.33,0.05,0.44,0.08c0.07,0.01,0.15,0.05,0.17,0.2c0.02,0.1-0.02,0.21-0.07,0.29c-0.08,0.15-0.13,0.31-0.09,0.45
	c0.04-0.06,0.08-0.08,0.12-0.08c0.1,0,0.12,0.11,0.06,0.25c-0.06,0.13-0.1,0.28-0.04,0.45c0.03-0.06,0.08-0.09,0.13-0.09
	c0.08,0,0.13,0.09,0.07,0.26c-0.05,0.15-0.07,0.29-0.01,0.44c0.03-0.06,0.07-0.11,0.14-0.11c0.09,0,0.13,0.09,0.16,0.17
	c0.11,0.26,0.28,0.39,0.69,0.39c-0.15,0.28-1.35,0.1-1.85,0.04c-0.11-0.01-0.17-0.04-0.2-0.13c-0.08-0.19,0.1-0.35,0-0.56
	c-0.05-0.1-0.13-0.13-0.22-0.18c-0.04-0.03-0.15-0.17-0.22-0.1c0.03,0.08,0.02,0.14-0.06,0.22c-0.06,0.05-0.11,0.09-0.12,0.17
	c-0.02,0.14,0.1,0.27,0.13,0.39c0.03,0.09-0.02,0.13-0.1,0.07c-0.12-0.09-0.29-0.3-0.47-0.3c-0.12,0-0.15,0.07-0.25,0.12
	c-0.04,0.02-0.23,0.04-0.21,0.13c0.08,0.01,0.15,0.06,0.18,0.17c0.02,0.07,0.03,0.15,0.1,0.2c0.16,0.13,0.42,0.07,0.57,0.1
	c0.06,0.01,0.07,0.06,0.01,0.1c-0.13,0.08-0.31,0.13-0.37,0.25c-0.05,0.1-0.02,0.22-0.02,0.33c0,0.05-0.06,0.19,0.04,0.22
	c0.05-0.07,0.12-0.12,0.24-0.1c0.07,0.01,0.14,0.04,0.21,0.01c0.13-0.06,0.14-0.18,0.2-0.29c0.03-0.05,0.09-0.11,0.18-0.11
	c0.05,0,0.11,0.01,0.15,0.06c0.1,0.08,0.09,0.29,0.38,0.33c-0.02-0.03-0.02-0.07-0.02-0.1c0-0.06,0.04-0.11,0.1-0.11
	c0.07,0,0.12,0.03,0.18,0.13c0.08,0.13,0.16,0.18,0.3,0.19c-0.02-0.03-0.03-0.08-0.03-0.11c0-0.06,0.04-0.1,0.09-0.1
	c0.03,0,0.1,0.01,0.15,0.11c0.09,0.14,0.15,0.21,0.3,0.23c-0.04-0.09-0.01-0.2,0.1-0.2c0.11,0,0.4,0.1,0.61,0.19
	c-0.01,0.54,0.34,1.13,0.87,1.48c-0.02-0.1,0.04-0.16,0.11-0.16c0.21,0,0.32,0.5,0.8,0.73c-0.02-0.09,0.03-0.16,0.1-0.16
	c0.06,0,0.13,0.03,0.17,0.06c0.43,0.23,0.88,0.53,1.1,0.72c0.44-0.14,1.17-0.57,1.64-1.06c-0.29-0.09-1.1-0.7-1.38-0.98
	c-0.5-0.52-0.64-1.07-0.64-1.47c0-0.14,0.02-0.26,0.05-0.36c0.15,0.09,0.36,0.07,0.49-0.04c-0.23-0.18-0.2-0.54-0.12-0.66
	c0.13,0.1,0.36,0.07,0.48-0.03c-0.18-0.11-0.27-0.4-0.18-0.64c0.1,0.1,0.33,0.11,0.47-0.01c-0.18-0.15-0.28-0.4-0.23-0.69
	c0.09,0.12,0.25,0.13,0.37,0.09c-0.07-0.16-0.08-0.42-0.1-0.59c-0.03-0.24-0.1-0.5-0.17-0.65c-0.25-0.22-1.03-0.53-1.51-0.53
	c-0.06,0-0.13,0.01-0.18,0.02c-0.14,0.03-0.23,0.08-0.23,0.1c-0.07,0.11-0.25,0.14-0.41,0.18C40.59,35.68,40.28,35.76,40.17,35.83
	 M41.67,35.75c-0.04,0-0.08-0.01-0.11-0.01c-0.04-0.01-0.05-0.03-0.06-0.04c-0.01-0.01-0.04-0.05-0.13-0.06
	c-0.15-0.01-0.22,0.1-0.23,0.17c-0.01,0.05,0.01,0.1,0.04,0.14c0.03,0.03,0.07,0.05,0.11,0.06c0.03,0,0.06,0,0.09-0.01l0,0
	c0.06-0.04,0.09-0.09,0.11-0.14c0.01-0.02,0.08-0.05,0.16-0.06c0.01,0,0.03-0.01,0.03-0.02C41.7,35.76,41.69,35.75,41.67,35.75
	 M43.24,34.63c0.03,0.04,0.05,0.09,0.06,0.15c0,0.14-0.11,0.25-0.25,0.26c-0.14,0-0.25-0.11-0.26-0.24c0-0.13,0.09-0.23,0.21-0.25
	l-0.29-0.44l-0.49,0.21c0.05,0.04,0.08,0.11,0.09,0.18c0,0.14-0.11,0.25-0.25,0.26c-0.14,0-0.25-0.11-0.26-0.25
	c0-0.11,0.06-0.2,0.15-0.24c-0.15-0.16-0.46-0.39-0.76-0.49c0.24,0.42,0.36,0.95,0.35,1.39c0.31-0.02,1.18,0.25,1.51,0.49
	c0.27-0.39,0.67-0.77,1.11-0.93C43.96,34.66,43.54,34.59,43.24,34.63 M35.1,38.46c0.01-3.1,2.51-5.61,5.58-5.61
	c3.08,0.01,5.57,2.52,5.56,5.63c0,3.1-2.5,5.61-5.58,5.6C37.58,44.07,35.09,41.49,35.1,38.46 M14.92,36.16
	c0.02-0.03,0.07-0.07,0.11-0.09c0.09-0.05,0.21-0.08,0.28-0.09c0.04,0.06,0.02,0.15-0.05,0.23c-0.07,0.08-0.14,0.04-0.21,0.01
	c-0.05-0.02-0.09-0.02-0.11-0.02C14.91,36.21,14.9,36.18,14.92,36.16 M19.06,36.14c0.02,0.17-0.07,0.45-0.14,0.53
	c-0.06,0.02-0.22,0.04-0.34,0.04c-0.08,0-0.09,0.01-0.14,0.08c-0.14,0.24-0.27,0.46-0.41,0.74C18,37.86,18,38.18,17.98,38.57
	c-0.01,0.14,0.01,0.32-0.08,0.48c-0.12,0.15-0.25,0.27-0.36,0.34c-0.02,0.01-0.05,0.05,0.04,0.02c0.06-0.02,0.31-0.15,0.37-0.16
	c0.18-0.06,0.39-0.28,0.68,0c0.14,0.13,0.35,0.26,0.6,0.43c0.1,0.06,0.14,0.05,0.27,0.16c0.1,0.09,0.15,0.29,0.21,0.39
	c0.16,0.27,0.17,0.43,0.17,0.49c-0.1,0.05-0.46,0.06-0.61,0.01c-0.05-0.09-0.05-0.23-0.08-0.3c-0.05-0.13-0.1-0.19-0.16-0.24
	c-0.11-0.08-0.2-0.17-0.31-0.23c-0.28-0.16-0.32-0.2-0.52-0.1c-0.19,0.09-0.48,0.36-0.8,0.52c-0.24,0.12-0.91,0-1.09-0.17
	c0.06,0.18,0.44,0.39,0.72,0.52c-0.04,0.1-0.14,0.61-0.34,0.91c-0.02-0.08-0.06-0.13-0.12-0.13c-0.19,0-0.16,0.4-0.33,0.61
	C16.21,42.07,16.16,42,16.09,42c-0.18,0-0.16,0.38-0.35,0.58c-0.02-0.08-0.07-0.14-0.15-0.14c-0.08,0-0.15,0.08-0.22,0.15
	c-0.24,0.26-0.35,0.4-0.58,0.64c-0.77-0.04-1.89-0.57-2.29-1.05c0.72-0.78,1.37-1.55,1.69-1.78c0.15-0.46,0.61-1.42,0.78-1.87
	c-0.02-0.05-0.04-0.09-0.07-0.13c-0.11,0.07-0.25,0.08-0.3,0.05c0.05-0.13,0.05-0.32,0-0.48c-0.08,0.05-0.2,0.07-0.28,0.04
	c0.05-0.15,0.06-0.33,0.01-0.47c0,0,0,0,0,0c-0.1,0.04-0.2,0.06-0.27,0.03c0.04-0.17,0.08-0.33,0.03-0.54
	c-0.01-0.02-0.01-0.03-0.02-0.05c-0.14,0.07-0.62,0.16-0.73,0.11c-0.07-0.06,0.35-0.48,0.7-0.83c-0.33,0.15-0.76,0.3-1.42,0.43
	c-0.38,0.08-1.16,0.21-1.72,0.11c-0.09-0.01-0.07-0.14,0.02-0.14c0.29,0,0.69-0.02,0.98-0.09c0.08-0.02,0.2-0.09-0.02-0.12
	c-0.24-0.05-0.67-0.11-0.89-0.19c-0.08-0.03-0.03-0.12,0.03-0.11c0.27,0.02,0.58,0.07,0.81,0.09c0.13,0,0.19-0.02,0.09-0.1
	c-0.06-0.05-0.25-0.17-0.44-0.28c-0.04-0.02-0.04-0.08,0.02-0.09c0.15-0.03,0.74,0.34,1.14,0.46c0.09,0.02,0.16,0.04,0.24,0.02
	c0.08-0.01,0.09-0.06,0.09-0.09c-0.02-0.1-0.41-0.28-0.6-0.41c-0.08-0.05,0-0.11,0.08-0.09c0.21,0.06,0.7,0.32,0.92,0.34
	c0.18,0.02,0.24-0.03,0.23-0.08c-0.02-0.12-0.69-0.43-0.85-0.55c-0.04-0.02,0.02-0.08,0.06-0.07c0.34,0.04,1.01,0.5,1.31,0.45
	c0.03,0,0.07-0.03,0.06-0.07c-0.02-0.13-0.58-0.42-0.72-0.52c-0.07-0.04,0.01-0.09,0.11-0.07c0.2,0.05,0.52,0.21,0.71,0.3
	c0.09,0.04,0.16,0.06,0.26,0.05c0.12-0.02,0.23-0.15,0.18-0.41c-0.05-0.27-0.3-0.38-0.47-0.42c-0.2-0.05-0.05-0.15,0.12-0.11
	c0.32,0.06,0.56,0.21,0.61,0.49c0.01,0.05,0.01,0.11,0.01,0.17c0.01,0.16,0.12,0.1,0.21-0.03c0.18-0.25,0.21-0.5,0.18-0.66
	c-0.05-0.29-0.46-0.41-0.46-0.48c0-0.02,0.03-0.04,0.05-0.05c0.16-0.03,0.59,0.16,0.65,0.51c0.03,0.18,0,0.28-0.03,0.46
	c-0.01,0.04,0.02,0.07,0.08,0.01c0.21-0.21,0.38-0.58,0.32-0.92c-0.06-0.36-0.43-0.48-0.44-0.54c0-0.01,0.03-0.04,0.06-0.05
	c0.15-0.02,0.56,0.22,0.64,0.61c0.07,0.35-0.1,1.08-1.19,1.66c0.46-0.1,0.59-0.09,0.63-0.03c0.53-0.14,0.87-0.25,1-0.22
	c0.15,0.23-0.17,0.32-0.17,0.49c0,0.16,0.37-0.11,0.3,0.15c-0.11,0.2-0.25,0.22-0.42,0.28c-0.08,0.06-0.41,0.29-0.58,0.43
	c0.53,0.37,1.07,0.92,1.1,0.95c0.03,0.08,0.16,0.31,0.31,0.66c0,0.01,0.01,0.01,0.01,0.02c0.07-0.22,0.2-0.6,0.25-0.79
	c0.05-0.17,0.03-0.22,0.08-0.32c0.04-0.08,0.19-0.22,0.32-0.41c0.12-0.17,0.31-0.44,0.37-0.55c0.11-0.17,0.22-0.13,0.42-0.19
	C18.73,36.15,18.96,36.13,19.06,36.14 M15.44,44.07c3.08,0,5.58-2.5,5.58-5.61c0.01-3.1-2.48-5.62-5.56-5.63
	c-3.08,0-5.58,2.5-5.59,5.6C9.87,41.54,12.36,44.06,15.44,44.07 M42.54,50.41L28.07,38.62L13.61,50.41
	C6.15,41.74,6.2,31.74,6.22,27.62v-6.79h0.03l21.82,17.79l21.82-17.79h0.03l0,6.79C49.95,31.74,50,41.74,42.54,50.41 M32.35,26.37
	c0.2-0.16,0.34-0.32,0.34-0.61c0-0.33-0.22-0.54-0.47-0.54c-0.29,0-0.45,0.23-0.45,0.48C31.77,25.95,31.95,26.13,32.35,26.37
	 M32.63,27.45c0-0.25-0.12-0.42-0.65-0.74c-0.24,0.12-0.36,0.37-0.36,0.59c0,0.42,0.29,0.61,0.52,0.61
	C32.48,27.92,32.63,27.67,32.63,27.45 M31.86,26.65c-0.3-0.18-0.52-0.45-0.52-0.78c0-0.29,0.21-0.81,0.9-0.81
	c0.55,0,0.79,0.34,0.79,0.65c0,0.32-0.11,0.51-0.57,0.72c0.45,0.23,0.65,0.47,0.65,0.82c0,0.48-0.38,0.83-0.96,0.83
	c-0.52,0-0.85-0.35-0.85-0.73C31.29,26.93,31.62,26.73,31.86,26.65 M28.93,26.74h0.13l0.1-0.27h1.22l-1.19,2.43l0.22,0.06l1.48-2.91
	L30.86,26h-1.82L28.93,26.74z M30.46,23.53c0.97,0,2.2,0.18,3.48,0.19v6.48c-2.34-0.23-5.09-0.42-5.7,0.71v-0.34
	c0.55-1.02,3.01-0.93,5.34-0.71v-0.18c-2.35-0.23-4.6-0.32-5.34,0.58v-5.83C28.4,23.72,29.24,23.53,30.46,23.53 M26.29,26.37
	c0.2-0.16,0.34-0.32,0.34-0.61c0-0.33-0.22-0.54-0.48-0.54c-0.29,0-0.45,0.23-0.45,0.48C25.7,25.95,25.88,26.13,26.29,26.37
	 M26.56,27.45c0-0.25-0.12-0.42-0.65-0.74c-0.23,0.12-0.36,0.37-0.36,0.59c0,0.42,0.29,0.61,0.53,0.61
	C26.41,27.92,26.56,27.67,26.56,27.45 M25.79,26.65c-0.3-0.18-0.52-0.45-0.52-0.78c0-0.29,0.21-0.81,0.9-0.81
	c0.55,0,0.79,0.34,0.79,0.65c0,0.32-0.12,0.51-0.57,0.72c0.44,0.23,0.64,0.47,0.64,0.82c0,0.48-0.38,0.83-0.95,0.83
	c-0.52,0-0.85-0.35-0.85-0.73C25.23,26.93,25.55,26.73,25.79,26.65 M23,28.02c0.28-0.01,0.57-0.02,0.8-0.02
	c0.3,0,0.55,0.01,0.8,0.02v-0.13h-0.13c-0.39,0-0.42-0.04-0.42-0.3v-1.13c0-0.31,0.05-0.33,0.31-0.33h0.24V26
	c-0.25,0.01-0.52,0.02-0.8,0.02c-0.25,0-0.53-0.01-0.8-0.02v0.13h0.24c0.26,0,0.31,0.02,0.31,0.33v1.13c0,0.26-0.03,0.3-0.42,0.3H23
	V28.02z M27.9,30.57v0.34c-0.6-1.13-3.35-0.95-5.69-0.71v-6.48c1.26-0.01,2.5-0.19,3.47-0.19c1.23,0,2.08,0.19,2.22,0.9v5.83
	c-0.75-0.89-2.99-0.81-5.33-0.58v0.18C24.89,29.65,27.34,29.57,27.9,30.57 M27.37,31.76c-0.07-0.12-0.34-0.72-1.82-0.72h-4.33v-6.99
	h0.32v6.67h3.96c0.3,0,0.56,0.02,0.79,0.05c0.8,0.13,1.13,0.45,1.29,0.67h1.01c0.15-0.23,0.47-0.54,1.26-0.67
	c0.22-0.04,0.48-0.05,0.78-0.05h3.97v-6.65h0.32v6.98h-4.34c-1.48,0-1.73,0.61-1.78,0.72H27.37z M47.41,20.83H8.76l-2.47-2.59
	l4.93,1.64c-0.41-1.23-1.53-1.65-2.26-2.7c-0.43-0.62-0.58-1.24-0.53-1.88c0.13,0.23,0.37,0.54,0.74,0.8
	c0.36,0.25,0.84,0.44,1.49,0.58c1.16,0.25,1.76,0.62,2.28,1.09l-2.52-4.52l4.35,2.81c-0.18-1.29-1.07-1.97-1.52-3.16
	c-0.26-0.71-0.26-1.35-0.05-1.95c0.07,0.25,0.22,0.62,0.52,0.95c0.29,0.33,0.7,0.63,1.3,0.93c1.1,0.55,1.59,1.07,1.98,1.68
	l-1.34-5.06l3.5,3.78c0.14-1.27-0.55-2.15-0.68-3.41c-0.08-0.75,0.08-1.38,0.43-1.91c0.01,0.26,0.06,0.65,0.27,1.06
	c0.19,0.39,0.52,0.78,1.02,1.22c0.97,0.84,1.3,1.48,1.52,2.2l-0.04-5.31l2.43,4.5c0.48-1.14-0.03-2.19,0.16-3.44
	c0.11-0.75,0.44-1.32,0.91-1.75c-0.06,0.26-0.1,0.65,0,1.09c0.09,0.42,0.31,0.89,0.69,1.44c0.74,1.08,0.9,1.79,0.93,2.55l0.01,0
	l1.29-5.21l1.24,5c0.75-1.03,0.56-2.2,1.05-3.36c0.3-0.7,0.75-1.12,1.32-1.42c-0.12,0.23-0.26,0.6-0.28,1.05
	c-0.02,0.43,0.08,0.94,0.31,1.56c0.44,1.19,0.41,1.91,0.26,2.64l2.52-4.66l-0.04,5.12c0.98-0.77,1.05-1.99,1.81-2.99
	c0.46-0.6,1.02-0.89,1.64-1.04c-0.18,0.19-0.4,0.52-0.53,0.95c-0.12,0.41-0.16,0.93-0.09,1.59c0.13,1.3-0.08,2-0.42,2.68h0
	l3.64-3.94l-1.31,4.94c1.09-0.53,1.49-1.57,2.47-2.35c0.59-0.47,1.2-0.7,1.84-0.69c-0.22,0.15-0.51,0.4-0.75,0.79
	c-0.22,0.37-0.39,0.86-0.49,1.52c-0.2,1.28-0.56,1.91-1.06,2.48l0.02,0.02l4.5-2.91l-2.49,4.45c1.21-0.17,1.8-1.14,2.94-1.65
	c0.69-0.3,1.35-0.39,1.97-0.22c-0.25,0.09-0.6,0.26-0.92,0.58c-0.31,0.3-0.59,0.74-0.85,1.35c-0.51,1.18-1.02,1.7-1.64,2.13
	l0.03,0.03l5.09-1.69L47.41,20.83z M33.26,50.9c-0.11,0.04-0.23,0.08-0.34,0.13c-0.07,0.03-0.11,0.05-0.12,0.11
	c0,0.04,0.04,0.09,0.06,0.12c-0.06,0.23-0.6,0.2-0.78,0.26c-0.15,0.05-0.33,0.22-0.43,0.33c-0.1,0.11-0.07,0.08-0.23,0.12
	c-0.29,0.06-0.23,0.32-0.14,0.53c0.09,0.21,0.24,0.38,0.43,0.5c0.07,0.05,0.38,0.17,0.54,0.17c-0.16,0.18-0.38,0.13-0.58,0.21
	c-0.11,0.05-0.22,0.11-0.34,0.14c-0.17,0.03-0.26,0.02-0.39,0c-0.22-0.04-0.39-0.03-0.57-0.01c-0.14,0.02-0.25,0-0.37-0.07
	c-0.05-0.03-0.16-0.11-0.21-0.11c-0.17-0.03-0.03,0.22,0,0.3c-0.23,0.21-0.74-0.08-0.94-0.21c-0.18-0.11-0.27-0.36-0.48-0.42
	c-0.02,0.22,0,0.43,0.01,0.65c0.02,0.66,0.04,1.32,0.06,1.98c0.01,0.39,0.02,0.77,0.03,1.16h-0.73l0.09-3.82
	c-0.23,0.01-0.32,0.23-0.52,0.31c-0.11,0.05-0.24,0.03-0.35,0.1c-0.12,0.08-0.16,0.17-0.3,0.23c-0.11,0.05-0.25,0.07-0.38,0.07
	c-0.16,0-0.33-0.03-0.42-0.12c0.08-0.14,0-0.28-0.1-0.33c-0.11-0.06-0.27,0.03-0.37,0.06c-0.51,0.12-1.1-0.19-1.56-0.36
	c0,0,1.11-0.19,1.11-0.84c0-0.18-0.08-0.32-0.22-0.44c-0.13-0.11-0.37-0.23-0.54-0.26c-0.28-0.04-0.47,0.03-0.64-0.03
	c0.02-0.09-0.13-0.21-0.24-0.3c-0.11-0.08-0.24-0.12-0.37-0.18c-0.22-0.12-0.56-0.33-0.46-0.61c0.18,0.09,0.35,0.11,0.51,0.03
	c0.13-0.07,0.17-0.17,0.17-0.32c0-0.21-0.23-0.34-0.31-0.5c-0.06-0.13-0.12-0.24-0.24-0.33c-0.1-0.08-0.28-0.11-0.28-0.27
	c0.21,0.08,0.27-0.1,0.15-0.24c-0.14-0.16-0.33-0.24-0.43-0.43c-0.09-0.18-0.16-0.38-0.17-0.58c0-0.06,0.01-0.23,0.1-0.25
	c0.08-0.01,0.11,0.09,0.14,0.14c0.13,0.2,0.33,0.29,0.53,0.39c0.25,0.13,0.34,0.19,0.62,0.24c0.54,0.1,0.88,0.02,1.19-0.27
	c0.06-0.05,0.19-0.15,0.25-0.15c0.11,0.15,0.39,0.45,0.67,0.53c0.21,0.06,0.44,0.35,0.55,0.44c0.37,0.33,0.6,0.14,0.6-0.17
	c0-0.26-0.1-0.59-0.15-0.84c-0.09-0.4-0.17-0.6-0.22-1.02c-0.03-0.25-0.18-0.47-0.27-0.65c-0.09-0.18-0.23-0.64,0.11-0.48
	c0.14,0.07,0.35,0.19,0.52,0.17c0.4-0.05,0.44-0.49,0.52-0.81c0.04-0.17,0.04-0.3,0.1-0.47c0.03-0.1,0.08-0.15,0.13-0.16
	c0.01,0.05,0.07,0.14,0.16,0.14c0.15,0,0.28-0.26,0.32-0.42c0.03-0.13,0.06-0.29,0.1-0.4c0.07-0.2,0.09-0.44,0.19-0.66
	c0.04,0.15,0.11,0.41,0.14,0.51c0.09,0.24,0.17,0.47,0.31,0.67c0.12,0.17,0.27,0.22,0.46,0.12c0.1,0.22,0.1,0.96,0.28,1.3
	c0.11,0.2,0.25,0.27,0.43,0.27c0.15,0,0.26-0.04,0.37-0.11c0.14-0.08,0.29-0.18,0.39-0.18c0.05,0,0.07,0.02,0.07,0.07
	c0,0.15-0.24,0.57-0.27,0.66c-0.07,0.2-0.19,0.42-0.25,0.63c-0.05,0.17-0.1,0.38-0.14,0.56c-0.04,0.2-0.07,0.43-0.09,0.74
	c-0.01,0.19,0,0.52,0.15,0.62c0.2,0.14,0.46-0.14,0.62-0.26c0.2-0.16,0.37-0.3,0.52-0.51c0.11-0.15,0.33-0.54,0.54-0.52
	c0,0.16,0.22,0.38,0.55,0.43c0.21,0.03,0.37-0.01,0.49-0.1c0.16-0.11,0.17-0.11,0.34-0.04c0.38,0.14,1.01-0.35,1.23-0.53
	c0.08,0.08,0.01,0.23-0.09,0.38c-0.18,0.27-0.38,0.36-0.39,0.56c0,0.18-0.22,0.52-0.21,0.71c-0.07,0.12-0.28,0.24-0.37,0.32
	c-0.28,0.24-0.45,0.51-0.35,0.88c0.09,0.32,0.35,0.47,0.6,0.47c0.25,0,0.41-0.16,0.49-0.12c0.05,0.03-0.07,0.18-0.12,0.22
	C33.63,50.77,33.41,50.86,33.26,50.9 M51.78,27.66l0-21.25c-5.5-1.94-14.13-3.2-23.86-3.2c-9.55,0-18.04,1.25-23.54,3.2l0,21.55
	c0,3.18-0.14,8.8,2.74,15.54c3.59,8.36,10.53,14.65,20.44,18.59l0.51,0.21l0.51-0.2c9.92-3.95,16.86-10.23,20.45-18.6
	C51.92,36.77,51.78,30.7,51.78,27.66"/>
<g>
	<path class="st2" d="M63.17,68.94h3.48c2.26,0,3.39,0.93,3.39,2.51c0,1.35-0.87,2.08-1.89,2.31v0.03c1.24,0.23,2.22,1,2.22,2.44
		c0,1.58-1.11,2.72-3.42,2.72h-3.77V68.94z M66.56,73.39c1.59,0,2.53-0.57,2.53-1.81c0-1.23-0.77-1.77-2.5-1.77h-2.47v3.58H66.56z
		 M66.93,78.1c1.72,0,2.49-0.69,2.49-1.91c0-1.35-1.07-1.96-2.79-1.96h-2.52v3.87H66.93z"/>
	<path class="st2" d="M72.34,76.97v-5.15h0.93v4.99c0,1,0.43,1.49,1.42,1.49c0.91,0,1.68-0.49,2.47-1.24v-5.23h0.95v7.12h-0.95
		v-1.12c-0.69,0.68-1.6,1.27-2.7,1.27C73.05,79.09,72.34,78.3,72.34,76.97z"/>
	<path class="st2" d="M80.13,77.81l0.6-0.54c0.54,0.62,1.23,1.03,2.22,1.03c1.22,0,1.85-0.45,1.85-1.24c0-0.78-0.57-1.1-1.96-1.42
		c-1.64-0.4-2.48-0.84-2.48-2.08c0-1.02,0.88-1.87,2.42-1.87c1.22,0,2,0.4,2.64,1.03l-0.53,0.62c-0.54-0.54-1.22-0.88-2.08-0.88
		c-1.11,0-1.54,0.52-1.54,1.05c0,0.69,0.49,0.97,1.73,1.27c1.78,0.43,2.7,0.87,2.7,2.26c0,1.3-1.16,2.04-2.77,2.04
		C81.66,79.08,80.67,78.54,80.13,77.81z"/>
	<path class="st2" d="M87.87,69.17h0.99v1h-0.99V69.17z M87.9,71.82h0.93v7.12H87.9V71.82z"/>
	<path class="st2" d="M91.41,71.82h0.93v1.12c0.69-0.67,1.6-1.26,2.72-1.26c1.41,0,2.12,0.78,2.12,2.11v5.15h-0.93v-4.97
		c0-1-0.45-1.49-1.42-1.49c-0.92,0-1.69,0.47-2.49,1.25v5.22h-0.93V71.82z"/>
	<path class="st2" d="M99.29,75.38c0-2.53,1.62-3.69,3.12-3.69c1.66,0,2.91,1.27,2.91,3.71v0.17h-5.1c0.01,1.76,1.01,2.74,2.24,2.74
		c1.07,0,1.68-0.46,2.22-1.3l0.58,0.46c-0.62,1-1.5,1.62-2.85,1.62C100.75,79.09,99.29,77.81,99.29,75.38z M104.42,74.82
		c-0.1-1.35-0.74-2.35-2.02-2.35c-1.03,0-1.99,0.74-2.16,2.35H104.42z"/>
	<path class="st2" d="M106.99,77.81l0.59-0.54c0.54,0.62,1.23,1.03,2.22,1.03c1.22,0,1.85-0.45,1.85-1.24c0-0.78-0.57-1.1-1.96-1.42
		c-1.64-0.4-2.48-0.84-2.48-2.08c0-1.02,0.88-1.87,2.42-1.87c1.22,0,2,0.4,2.64,1.03l-0.53,0.62c-0.54-0.54-1.22-0.88-2.08-0.88
		c-1.11,0-1.54,0.52-1.54,1.05c0,0.69,0.49,0.97,1.73,1.27c1.78,0.43,2.7,0.87,2.7,2.26c0,1.3-1.16,2.04-2.77,2.04
		C108.52,79.08,107.53,78.54,106.99,77.81z"/>
	<path class="st2" d="M113.95,77.81l0.59-0.54c0.54,0.62,1.23,1.03,2.22,1.03c1.22,0,1.85-0.45,1.85-1.24c0-0.78-0.57-1.1-1.96-1.42
		c-1.64-0.4-2.48-0.84-2.48-2.08c0-1.02,0.88-1.87,2.42-1.87c1.22,0,2,0.4,2.64,1.03l-0.53,0.62c-0.54-0.54-1.22-0.88-2.08-0.88
		c-1.11,0-1.54,0.52-1.54,1.05c0,0.69,0.49,0.97,1.73,1.27c1.78,0.43,2.7,0.87,2.7,2.26c0,1.3-1.16,2.04-2.77,2.04
		C115.48,79.08,114.5,78.54,113.95,77.81z"/>
	<path class="st2" d="M125.05,76.48l0.85-0.31c0.45,1.4,1.46,2.11,2.87,2.11c1.5,0,2.48-0.69,2.48-1.81c0-1.04-0.5-1.57-2.62-2.25
		c-2.15-0.68-3.25-1.26-3.25-2.91c0-1.43,1.28-2.56,3.11-2.56c1.88,0,2.96,0.96,3.43,2.29l-0.81,0.38c-0.5-1.3-1.38-1.81-2.64-1.81
		c-1.34,0-2.15,0.72-2.15,1.64c0,1.12,0.66,1.5,2.77,2.18c2.08,0.66,3.11,1.35,3.11,2.97c0,1.66-1.47,2.73-3.47,2.73
		C126.85,79.13,125.53,78.11,125.05,76.48z"/>
	<path class="st2" d="M133.89,75.39c0-2.56,1.58-3.71,3.18-3.71c1.53,0,2.28,0.91,2.73,1.95l-0.8,0.35c-0.39-0.96-0.96-1.5-1.96-1.5
		c-1.06,0-2.22,0.76-2.22,2.89c0,1.87,0.95,2.92,2.19,2.92c0.99,0,1.54-0.46,2.04-1.52l0.76,0.32c-0.57,1.2-1.39,1.99-2.84,1.99
		C135.34,79.09,133.89,77.76,133.89,75.39z"/>
	<path class="st2" d="M141.85,68.94h0.93v4c0.69-0.67,1.6-1.26,2.72-1.26c1.41,0,2.12,0.78,2.12,2.11v5.15h-0.93v-4.97
		c0-1-0.45-1.49-1.42-1.49c-0.92,0-1.69,0.47-2.49,1.25v5.22h-0.93V68.94z"/>
	<path class="st2" d="M149.75,75.39c0-2.38,1.47-3.71,3.23-3.71c1.75,0,3.22,1.32,3.22,3.71c0,2.37-1.47,3.7-3.22,3.7
		C151.23,79.09,149.75,77.76,149.75,75.39z M155.26,75.38c0-1.55-0.78-2.89-2.29-2.89c-1.45,0-2.3,1.22-2.3,2.89
		c0,1.58,0.77,2.92,2.3,2.92C154.41,78.3,155.26,77.1,155.26,75.38z"/>
	<path class="st2" d="M158,75.39c0-2.38,1.47-3.71,3.23-3.71c1.74,0,3.22,1.32,3.22,3.71c0,2.37-1.47,3.7-3.22,3.7
		C159.49,79.09,158,77.76,158,75.39z M163.52,75.38c0-1.55-0.78-2.89-2.29-2.89c-1.45,0-2.3,1.22-2.3,2.89
		c0,1.58,0.77,2.92,2.3,2.92C162.67,78.3,163.52,77.1,163.52,75.38z"/>
	<path class="st2" d="M166.68,68.94h0.93v10h-0.93V68.94z"/>
</g>
<g>
	<path class="st2" d="M62.4,61.35h23.85v-1.73l0,0c-3.33,0-6-0.72-6.53-5.94c-0.09-0.85-0.15-2.58-0.15-3.69V14.87
		c0-1.02,0.05-2.55,0.12-3.39c0.35-4.15,2-6.08,6.38-6.08V3.66H62.58v1.73c4.42,0,6.05,1.93,6.38,6.08
		c0.07,0.84,0.11,2.37,0.11,3.39v35.13c0,1.11-0.06,2.84-0.14,3.69c-0.51,5.25-3.12,5.94-6.53,5.94V61.35z"/>
	<path class="st2" d="M132.21,61.35h36.16l1.14-12.59h-1.55c-1.54,6.13-4.47,9.13-9.97,9.46c-1.49,0.09-4.26,0.09-5.63,0
		c-3.27-0.2-4.21-1.81-4.21-4.69V39.61c3.65-0.63,6.96-1.49,9.92-1.49c2.39,0,4.65,0.37,6.5,1.46l0.7-0.98
		c-2.02-2.35-4.79-3.84-8.94-3.84c-2.27,0-4.59,0.4-8.17,1.07V20.23h7.63c4.91,0,7.36,2.24,8.71,7.87h0.01h1.47V17.08h-33.02v1.54
		c4.48,0.25,5.29,2.2,5.29,5.94v12.69h-0.49c-2.79,0-4.94-0.29-6.83-1.95l-0.79,0.84c0.38,0.81,1.8,3.25,5.57,4.16
		c0.68,0.16,1.66,0.29,2.05,0.29h0.49v12.56c0,4.65-1.47,6.42-6.02,6.67V61.35z"/>
	<path class="st2" d="M107.26,61.85h2.84l13.43-34.98c1.92-4.95,3.59-7.6,7.2-8.26l0,0v-1.53h-14.44v1.52
		c3.2,0.14,4.33,1.81,4.33,4.04c0,1.31-0.52,3.21-1.19,4.99c0,0-5.38,14.63-7.06,19.24l-0.43,1.18l-9.33-22.31
		c-0.62-1.49-1-2.83-1-3.95c0-1.96,1.43-3.2,4.3-3.2v-1.52H84.46v1.56l0.12,0.01c3.7,0.76,4.92,2.52,7.11,7.59L107.26,61.85z"/>
	<g>
		<path class="st2" d="M189.03,54.94c1.24,3.03,2.17,5.4,2.17,8.47c0,2.01-0.61,4.12-1.67,5.9c-1.44,2.41-3.6,4.02-7.75,4.02
			c-1.24,0-2.06-0.01-3.29-0.1l-1.82,5.66c1.2,0.12,2.23,0.16,3.7,0.16c7.03,0,10.49-3.44,13.92-12.08c1-2.48,2.92-7.86,5.82-16.01
			c2.08-5.85,4.74-13.12,7.87-21.77c2.36-6.28,4.12-10.07,8.17-10.59v-1.53h-14.7v1.52c2.96,0.17,4.27,1.75,4.27,4.3
			c0,1.67-0.57,3.62-1.24,5.54c-1.19,3.42-7.51,21.4-7.51,21.4l-0.27-1.01c-0.71-2.52-1.44-4.54-3.67-9.73l-5.5-12.76
			c-0.76-1.79-1.23-3.05-1.23-4.42c0-2.24,1.7-3.31,4.29-3.31v-1.53h-21.45v1.54c4.22,0.79,5.27,3.5,7.06,7.29
			C179.71,33.38,185.97,47.47,189.03,54.94z"/>
	</g>
</g>
</svg>
