<svg height="46" viewBox="0 0 147 46" width="147" xmlns="http://www.w3.org/2000/svg" xmlns:xlink="http://www.w3.org/1999/xlink"><linearGradient id="a"><stop offset="0" stop-color="#d41367"/><stop offset=".11" stop-color="#c4166d"/><stop offset=".34" stop-color="#991f7c"/><stop offset=".65" stop-color="#542e94"/><stop offset="1" stop-color="#003fb2"/></linearGradient><linearGradient id="b" x1="-9.303112%" x2="66.779432%" xlink:href="#a" y1="49.843457%" y2="49.843457%"/><linearGradient id="c" x1="11.749696%" x2="111.736866%" y1="49.96737%" y2="49.96737%"><stop offset=".11" stop-color="#0093c9"/><stop offset=".31" stop-color="#006fbf"/><stop offset=".5" stop-color="#0055b8"/><stop offset=".67" stop-color="#0045b4"/><stop offset=".8" stop-color="#003fb2"/></linearGradient><linearGradient id="d" x1="-9.344862%" x2="66.744263%" xlink:href="#a" y1="49.843457%" y2="49.843457%"/><g fill="none" fill-rule="nonzero" transform="translate(0 -1)"><g fill="#003da6"><path d="m27.3485821 38.6567442h.8995522v8.1488372h-.8995522z"/><path d="m29.9046269 38.6567442h.811791l5.0462687 6.5302325v-6.5302325h.8776119v8.1488372h-.7240298l-5.1669403-6.6976744v6.6976744h-.8885821z"/><path d="m37.5727612 38.6567442h1.0092537l2.8522388 7.0213953 2.863209-7.0213953h.9763433l-3.455597 8.2269767h-.7898508z"/><path d="m46.1623881 38.6567442h5.7922388v.8260465h-4.8926866v2.8018605h4.3880597v.8260465h-4.3880597v2.8688372h4.9475373v.8260465h-5.8470895z"/><path d="m55.9477612 46.8837209c-.5992756.0102271-1.1949764-.0958512-1.7552239-.3125581-.5648898-.2175601-1.0855289-.5392133-1.5358209-.9488372l.5594776-.6809303c.3698361.3598231.7962493.6541212 1.2615672.8706977.4694285.1960653.9736734.2910838 1.4809701.2790698.4632041.0285915.9215066-.1097328 1.2944777-.3906977.3139596-.2293992.4982142-.600213.4936567-.9934884.003532-.1727691-.0301682-.3442287-.0987314-.5023255-.0652518-.1656789-.1756193-.3089654-.3181343-.4130233-.1926122-.1491133-.407412-.2659362-.6362687-.3460465-.3416957-.116784-.6896464-.2136848-1.0421641-.2902326-.4064898-.0849081-.8061827-.2005784-1.1957463-.3460465-.3057689-.1112477-.5912294-.2734601-.8447015-.48-.2125211-.1730854-.3816976-.3949642-.4936567-.6474418-.1052945-.2776103-.1574255-.5731546-.1535821-.8706977-.0009065-.3077774.0626703-.6122161.1864925-.8930233.1341492-.2697953.3207578-.5090511.5485075-.7032558.2505916-.2081792.5370218-.3671574.8447015-.4688372.3533718-.1200848.7245702-.1767424 1.0970149-.1674418.5228852-.0082253 1.0430053.0787236 1.5358209.2567441.4611832.1775345.8909601.4301269 1.2725373.747907l-.5265671.7144186c-.3274864-.285277-.6978747-.5151814-1.097015-.6809302-.3806417-.1370344-.7810274-.2087095-1.1847761-.212093-.4470899-.0213681-.8880505.1124559-1.250597.3795348-.2900465.221355-.4607463.5687496-.4607463.9376745-.001334.1787777.0283762.35639.0877612.5246511.0785133.1638661.1952729.3056715.3400747.4130233.1985516.1551764.4209548.2758744.6582089.3572093.3588353.1217581.7253405.2187228 1.0970149.2902325.7133035.1187754 1.3894778.4054622 1.9746269.8372093.4016297.388674.6006602.9466526.5375373 1.5069768.0033042.3271817-.0641072.6511034-.1974627.9488372-.1388745.2762384-.3288415.5226048-.5594776.7255814-.2571555.2106232-.5512314.3697128-.8666418.4688372-.3446581.0833345-.6996749.1134387-1.0531343.0893023z"/><path d="m61.6741791 39.5051163h-2.6876866v-.8483721h6.2749254v.8483721h-2.7315672v7.3004651h-.8995522z"/><path d="m68.4208209 38.6567442h.9105224v8.1488372h-.9105224z"/><path d="m71.218209 38.6567442h.8447014l5.0462687 6.5302325v-6.5302325h.8885821v8.1488372h-.7240299l-5.1779104-6.6976744v6.6976744h-.8776119z"/><path d="m84.9857463 46.9506977c-.5617242.0043514-1.1182519-.1096688-1.6345523-.3348837-.4853965-.1933758-.9288882-.481588-1.3054477-.8483721-.3666645-.3868189-.6571215-.8415229-.8556717-1.3395349-.2079818-.5209375-.3123832-1.07867-.3071642-1.6409303-.0160909-.5802227.0847093-1.1576559.2961941-1.6967441.2037623-.4952262.4936252-.9490001.8556716-1.3395349.3811214-.3907833.8365058-.698438 1.3383582-.9041861.5348473-.2275282 1.1097331-.3414855 1.689403-.3348837.345652-.0013647.6907398.0285202 1.031194.0893023.2878809.062381.5703602.1482396.8447015.2567442.2432573.109582.4748398.2442387.6911194.4018605.2142771.1499963.4127889.3220684.5923881.5134884l-1.0970149 1.3172093c-.284475-.2722779-.6058872-.5015933-.954403-.6809303-.3432533-.163617-.7179717-.2475027-1.0970149-.2455814-.6360917-.0084672-1.24448.2644132-1.6674627.747907-.2087676.2391167-.3724005.5153659-.4826866.8148837-.1123239.3147444-.1680631.6474899-.1645522.9823256-.0015997.3383191.0540643.6743922.1645522.9934884.112869.2982393.2762363.5740401.4826866.8148837.4229827.4834938 1.031371.7563742 1.6674627.747907.4027632.0164543.8029939-.0719132 1.1628358-.2567442.3432629-.1870804.6605266-.4198219.9434328-.692093l1.0970149 1.116279c-.2020746.2156209-.4183193.4170153-.6472388.6027907-.2243833.181875-.4670828.3390323-.7240298.4688372-.277105.1299369-.5678623.2273096-.8666418.2902326-.3446659.0896392-.6976649.1420222-1.0531343.1562791z"/><path d="m92.6538806 46.9506977c-.5832175.0065592-1.1616788-.1073672-1.7003731-.3348837-.4981579-.1940256-.9559216-.4818383-1.3493284-.8483721-.3765931-.374564-.6750809-.8225649-.8776119-1.3172093-.2114588-.5202438-.3195831-1.0779467-.3181487-1.6409303-.0014344-.5629835.1066899-1.1206864.3181487-1.6409302.2155544-.4967278.5164618-.9503449.8885821-1.3395349.8188346-.8089685 1.9194897-1.2545532 3.0606716-1.2390698.5868758-.0077637 1.1691572.1061799 1.7113433.3348838.4986149.2069211.9531089.5101835 1.3383582.8930232.3812938.3772031.6835635.8290764.8885821 1.3283721.2079818.5209375.3123832 1.07867.3071642 1.6409302.0056286 1.1144385-.4292035 2.1844065-1.2067165 2.9693024-.3833131.3960642-.8426117.7076403-1.3493283.9153488-.5460799.2096435-1.1282296.304575-1.7113433.2790698zm0-1.6632558c.6554481.0219658 1.2879473-.2468823 1.7332836-.7367442.2205188-.232113.3889421-.510131.4936567-.8148837.1203017-.3128351.1799072-.6464222.1755224-.9823256.0033564-.3394432-.0561904-.6764889-.1755224-.9934884-.2268008-.6097044-.6855441-1.1006482-1.2725373-1.3618605-.3051065-.1461035-.6392026-.2186798-.9763433-.212093-.3357001-.0034986-.668363.064963-.9763433.2009302-.287768.1252967-.5458586.3117969-.7569403.5469768-.2120775.2386715-.3793914.5148582-.4936567.8148837-.1160635.3140431-.1755224.6468095-.1755224.9823256.0021385.3389497.0615102.675004.1755224.9934884.2268008.6097043.6855441 1.1006482 1.2725373 1.3618604.3147416.1390768.6552097.2076047.9982836.2009303z"/><path d="m100.67306 46.8837209c-.612954.0024891-1.2216846-.1032655-1.7991048-.3125581-.5918302-.2178062-1.1359679-.551539-1.6016418-.9823256l1.097015-1.2725581c.33412.2879918.7027212.5317899 1.0970149.7255814.4005483.1806274.8344357.2719736 1.2725377.2679069.299156.0126578.595749-.0608579.855671-.212093.189326-.1191362.302134-.3317081.296194-.5581395.002744-.1080246-.019818-.2151625-.065821-.3125582-.050715-.1073669-.135829-.1939752-.241343-.2455814-.153886-.0995549-.319826-.1783533-.493657-.2344186-.265391-.0987235-.5365-.1807389-.811791-.2455814-.3730906-.0894146-.739641-.2050406-1.0970146-.3460465-.3009566-.1043935-.5827228-.2590682-.8337313-.4576744-.2305443-.1795224-.4149719-.4131476-.5375374-.6809302-.1332463-.3210131-.1968578-.6675012-.1864925-1.015814-.0081745-.3468137.0631904-.6907941.2084328-1.0046511.128099-.2987474.3235201-.5626099.5704478-.7702326.2537926-.229486.5530865-.4007952.8776119-.5023256.3538118-.1193503.7242703-.1796645 1.0970153-.1786046 1.079624-.0173306 2.131242.3498942 2.97291 1.0381395l-.921492 1.3506977c-.342969-.238013-.710905-.4364438-1.097015-.5916279-.32776-.1354008-.677485-.2073313-1.031194-.212093-.27054-.0187419-.5398145.051716-.7679108.2009302-.1609389.1194192-.2549901.3108248-.2523135.5134884-.0024407.1187947.0199967.2367574.0658209.3460465.0696545.1069023.163766.1950053.2742538.2567442.1694106.0967643.3499701.1717562.5375376.2232558l.855671.2455814c.372708.0999267.739063.2229469 1.097015.3683721.293941.1199957.567798.2856889.811791.4911628.20687.187458.374726.415197.493657.6697674.117425.2899686.173493.6018586.164552.9153488.008407.3839814-.066506.7651248-.219403 1.1162791-.139471.3073138-.345792.5783323-.603358.7925581-.2726.2209816-.585922.3841891-.921492.48-.379247.1014196-.770907.146537-1.162836.1339535z"/><path d="m106.311716 40.3088372h-2.435373v-1.652093h6.58209v1.652093h-2.380523v6.4967442h-1.766194z"/><path d="m112.992537 38.5897674h1.634553l3.433656 8.215814h-1.777164l-.735-1.8306977h-3.389776l-.735 1.8306977h-1.853955zm1.864926 4.8-1.097015-2.6455814-1.097015 2.6455814z"/><path d="m120.452239 38.6567442h3.66403c.853824-.0614288 1.694878.2373018 2.325671.8260465.475374.496393.725839 1.1719836.69112 1.864186.027566.5748813-.13888 1.1420709-.471717 1.6074419-.319709.423226-.754588.7415269-1.250597.9153488l1.963657 2.9134884h-2.062388l-1.711343-2.612093h-1.393209v2.612093h-1.755224zm3.510448 3.9516279c.359508.0269047.715824-.0846562.998283-.3125581.237418-.2092115.366908-.5180337.351045-.8372093.025594-.3328573-.109426-.6575998-.362015-.8706977-.296715-.2141925-.657364-.3167899-1.020224-.2902326h-1.755224v2.3330233z"/><path d="m128.350746 38.6567442h1.755224v8.1488372h-1.755224z"/><path d="m135.020597 46.9506977c-.561724.0043514-1.118252-.1096688-1.634552-.3348837-.485397-.1933758-.928888-.481588-1.305448-.8483721-.366664-.3868189-.657121-.8415229-.855672-1.3395349-.207981-.5209375-.312383-1.07867-.307164-1.6409303-.005219-.5622602.099183-1.1199927.307164-1.6409302.203763-.4952262.493626-.9490001.855672-1.3395349.374688-.3882845.822397-.6957951 1.316418-.904186.534847-.2275282 1.109733-.3414856 1.689403-.3348837.345652-.0013647.69074.0285202 1.031194.0893023.287881.0623809.57036.1482395.844701.2567442.244476.1071142.476311.2419181.69112.4018604.214277.1499963.412789.3220685.592388.5134884l-1.097015 1.3172093c-.284475-.2722778-.605887-.5015932-.954403-.6809302-.342892-.1646969-.717854-.2486372-1.097015-.2455814-.636092-.0084672-1.24448.2644131-1.667463.747907-.208767.2391167-.3724.5153659-.482686.8148837-.112324.3147444-.168063.6474899-.164552.9823256-.0016.3383191.054064.6743921.164552.9934883.112869.2982393.276236.5740401.482686.8148838.422983.4834938 1.031371.7563741 1.667463.7479069.402763.0164543.802994-.0719132 1.162836-.2567442.343263-.1870803.660526-.4198218.943433-.692093l1.097015 1.1162791c-.202075.2156208-.41832.4170153-.647239.6027907-.224384.181875-.467083.3390323-.72403.4688372-.28614.1439065-.588122.2525806-.899552.3237209-.333374.0565864-.671482.0790241-1.009254.0669768z"/><path d="m141.701418 38.5897674h1.623582l3.433657 8.215814h-1.842985l-.72403-1.8306977h-3.389776l-.735 1.8306977h-1.842985zm1.853955 4.8-1.097015-2.6455814-1.097015 2.6455814z"/><path d="m55.0591791 29.3134884v-26.27720933c.0348629-.5902034.5159511-1.05036751 1.0970149-1.04930417h4.1028359c.5695127 0 1.031194.4697905 1.031194 1.04930417v26.27720933c0 .5795136-.4616813 1.0493023-1.031194 1.0493023h-4.1576866c-.5597981-.0275268-1.0091904-.4799971-1.0421642-1.0493023z"/><path d="m90.624403 1.98697674h-4.190597c-.5695128 0-1.0311941.46978866-1.0311941 1.04930233v16.86697673l-13.3506716-17.51441859c-.2038809-.24918797-.5041665-.3958562-.8227612-.40186047h-3.7956716c-.5695128 0-1.0311941.46978866-1.0311941 1.04930233v26.27720933c0 .5795136.4616813 1.0493041 1.0311941 1.0493041h4.2235074c.5810639.0010634 1.062152-.4591007 1.097015-1.0493041v-16.7441861l13.2519402 17.3804651c.2017953.2533604.5023832.4042544.8227612.4130251h3.7956717c.5695127 0 1.031194-.4697905 1.031194-1.0493041v-26.27720933c0-.57951367-.4616813-1.04930233-1.031194-1.04930233z"/><path d="m108.308284 1.97581211c9.59888 0 13.866268 6.56372277 13.866268 13.98697859 0 7.4232558-4.102836 14.3888391-13.866268 14.3888391h-10.3997019c-.5810639.0010633-1.062152-.4591008-1.0970149-1.0493042v-26.27720932c.0348629-.5902034.515951-1.05036751 1.0970149-1.04930417zm-5.298583 22.58232739h5.298583c6.055522 0 7.679104-4.532093 7.679104-8.6288372s-1.908806-8.19348835-7.679104-8.19348835h-5.298583z"/><path d="m145.727463 30.3518908h-19.164851c-.569513 0-1.031194-.4700515-1.031194-1.0495652v-26.27720932c0-.57951367.461681-1.04930233 1.031194-1.04930233h18.649254c.559798.02752677 1.00919.47999709 1.042164 1.04930233v3.67255814c-.032974.56930524-.482366 1.02177556-1.042164 1.04930232h-13.570075v5.48093026h12.714403c.569513 0 1.031194.4697886 1.031194 1.0493023v3.4716279c0 .5795137-.461681 1.0493023-1.031194 1.0493023h-12.714403v5.76h14.107612c.55948.0335529 1.004142.4908367 1.031194 1.0604652v3.728372c-.023752.5707639-.491856 1.0173175-1.053134 1.0049141z"/><ellipse cx="3.334925" cy="15.862326" rx="3.334925" ry="3.393488"/></g><path d="m32.3509701 16.0967442c0-4.9786047 3.4007463-8.72930234 7.9204478-8.79627908-10.4984328 0-14.1953731 9.86790698-18.6492537 5.32465118-2.3147015-2.3665116-3.5872388-3.53860467-6.8453732-3.53860467-3.8070688.01204733-6.89712348 3.13646417-6.93313428 7.01023257v.1116279c.0360108 3.8737684 3.12606548 6.9981852 6.93313428 7.0102326 3.2910448 0 4.5306717-1.1720931 6.8453732-3.5386047 4.3880597-4.4651163 8.2056716 5.4474419 18.6492537 5.4474419-4.5197015-.1339535-7.9204478-3.9181396-7.9204478-9.0306977z" fill="url(#b)"/><path d="m48.7513433 21.7674419c-.1584591-.1615548-.3735605-.2523417-.5978732-.2523417-.2243126 0-.439414.0907869-.5978731.2523417-2.1940298 2.0427907-4.113806 3.3488372-7.1635074 3.3488372-4.5745523 0-8.0411195-3.8176744-8.0411195-8.9302326 0-5.1125581 3.4665672-8.80744185 8.0411195-8.80744185 2.5341044 0 4.6074626.94883721 6.9770149 3.18139535.1739833.1520506.3959564.2352663.6252985.2344186.234108-.0178743.4514183-.1304478.6033582-.3125581l3.0387313-3.56093027c.3106679-.33538893.3106679-.85902967 0-1.1944186-2.9212975-3.08462778-6.9932097-4.76066233-11.2005224-4.61023256-3.9591458-.08088968-7.7781225 1.49161033-10.5678434 4.35141018-2.789721 2.85979986-4.3067739 6.75737265-4.1979774 10.78533405-.068027 3.9707231 1.4407785 7.8015156 4.1849391 10.6253814 2.7441606 2.8238659 6.4916729 4.402063 10.3943892 4.3774093 4.4093608.1336653 8.6465114-1.7457314 11.5515672-5.123721.319005-.3406316.319005-.8761125 0-1.2167442z" fill="url(#c)"/><path d="m55.0591791 29.3134884v-26.27720933c.0348629-.5902034.5159511-1.05036751 1.0970149-1.04930417h4.1028359c.5695127 0 1.031194.4697905 1.031194 1.04930417v26.27720933c0 .5795136-.4616813 1.0493023-1.031194 1.0493023h-4.1576866c-.5597981-.0275268-1.0091904-.4799971-1.0421642-1.0493023z" fill="#003da6"/><path d="m90.624403 1.98697674h-4.190597c-.5695128 0-1.0311941.46978866-1.0311941 1.04930233v16.86697673l-13.3506716-17.51441859c-.2038809-.24918797-.5041665-.3958562-.8227612-.40186047h-3.7956716c-.5695128 0-1.0311941.46978866-1.0311941 1.04930233v26.27720933c0 .5795136.4616813 1.0493041 1.0311941 1.0493041h4.2235074c.5810639.0010634 1.062152-.4591007 1.097015-1.0493041v-16.7441861l13.2519402 17.3804651c.2017953.2533604.5023832.4042544.8227612.4130251h3.7956717c.5695127 0 1.031194-.4697905 1.031194-1.0493041v-26.27720933c0-.57951367-.4616813-1.04930233-1.031194-1.04930233z" fill="#003da6"/><path d="m108.308284 1.97581211c9.59888 0 13.866268 6.56372277 13.866268 13.98697859 0 7.4232558-4.102836 14.3888391-13.866268 14.3888391h-10.3997019c-.5810639.0010633-1.062152-.4591008-1.0970149-1.0493042v-26.27720932c.0348629-.5902034.515951-1.05036751 1.0970149-1.04930417zm-5.298583 22.58232739h5.298583c6.055522 0 7.679104-4.532093 7.679104-8.6288372s-1.908806-8.19348835-7.679104-8.19348835h-5.298583z" fill="#003da6"/><path d="m145.727463 30.3518908h-19.164851c-.569513 0-1.031194-.4700515-1.031194-1.0495652v-26.27720932c0-.57951367.461681-1.04930233 1.031194-1.04930233h18.649254c.559798.02752677 1.00919.47999709 1.042164 1.04930233v3.67255814c-.032974.56930524-.482366 1.02177556-1.042164 1.04930232h-13.570075v5.48093026h12.714403c.569513 0 1.031194.4697886 1.031194 1.0493023v3.4716279c0 .5795137-.461681 1.0493023-1.031194 1.0493023h-12.714403v5.76h14.107612c.55948.0335529 1.004142.4908367 1.031194 1.0604652v3.728372c-.023752.5707639-.491856 1.0173175-1.053134 1.0049141z" fill="#003da6"/><ellipse cx="3.334925" cy="15.862326" fill="#003da6" rx="3.334925" ry="3.393488"/><path d="m32.3509701 16.0967442c0-4.9786047 3.4007463-8.72930234 7.9204478-8.79627908h.5704478s-.4168657 0-.6911194 0c-10.3887314 0-14.0637314 9.84558138-18.517612 5.32465118-2.3147015-2.3665116-3.5872388-3.53860467-6.8453731-3.53860467-3.8070689.01204733-6.89712353 3.13646417-6.93313433 7.01023257v.1116279c.0360108 3.8737684 3.12606543 6.9981852 6.93313433 7.0102326 3.2910448 0 4.5306716-1.1720931 6.8453731-3.5386047 4.3880597-4.4651163 8.1288806 5.2576744 18.3530597 5.4474419h.5923881-.3071642c-4.5197015-.1339535-7.9204478-3.9181396-7.9204478-9.0306977z" fill="url(#d)"/></g></svg>